<svg width="80" height="90" viewBox="0 0 80 90" fill="none" xmlns="http://www.w3.org/2000/svg">
<path d="M68.296 6.96435C63.7791 2.47385 57.7716 3.86097e-07 51.3833 3.86097e-07C44.9942 -0.00112854 38.9878 2.47347 34.4694 6.96548C30.9389 10.4753 28.6469 14.8902 27.8149 19.6859C27.7301 20.1702 27.6612 20.6575 27.6086 21.149C27.5549 21.6314 27.5166 22.1187 27.4932 22.6079C27.4735 22.9966 27.464 23.3876 27.464 23.7797L27.4652 27.0126V28.4674L27.464 29.9233L27.4629 47.5591L45.2046 47.5579H46.668H48.1314C48.156 47.1621 48.1685 46.7617 48.1696 46.3587V43.1638L46.7093 43.1627H31.8852L31.8863 29.8771V26.9753L31.8852 23.7793C31.8863 23.3759 31.8988 22.9759 31.9234 22.5801C31.9533 22.0905 32.0018 21.6073 32.0688 21.1283C32.1358 20.6368 32.2224 20.1525 32.3281 19.6765C33.1309 15.9747 35.0031 12.6651 37.6028 10.0806C41.1333 6.57036 46.0075 4.39642 51.3833 4.39567C62.1341 4.3968 70.8802 13.0918 70.8814 23.7797C70.8802 29.1241 68.6935 33.9698 65.163 37.4796C62.5633 40.0641 59.2338 41.9254 55.5107 42.7235V43.1254L55.5096 46.3583C55.5096 46.6435 55.5054 46.9288 55.4971 47.2099C60.3209 46.3831 64.7644 44.1053 68.296 40.5944C72.8145 36.1027 75.3025 30.1303 75.3025 23.7793C75.3025 17.4288 72.8145 11.4564 68.296 6.96435Z" fill="#FF7200"/>
<path d="M31.886 26.9745H33.3452H34.8044L48.1682 26.9737L48.1693 40.2612V41.7119V43.1625V46.3574C48.1681 46.7604 48.1557 47.1608 48.131 47.5567C48.1011 48.0463 48.0535 48.5302 47.9857 49.0085C47.9195 49.4988 47.8339 49.982 47.7287 50.4584C46.9239 54.1602 45.0518 57.4721 42.4521 60.0566C38.9216 63.5664 34.047 65.7403 28.6716 65.7415C17.9211 65.7403 9.17462 57.0453 9.17349 46.3574C9.17462 41.0131 11.3613 36.1673 14.8918 32.6575C17.4915 30.073 20.8218 28.2129 24.5453 27.4125V23.7785C24.5453 23.491 24.5494 23.2057 24.5585 22.9258C19.735 23.7506 15.2912 26.0303 11.7584 29.542C7.23999 34.034 4.75082 40.0053 4.75195 46.357C4.75195 52.708 7.24037 58.6804 11.7573 63.1709C16.2753 67.6625 22.2829 70.1364 28.6712 70.1364C35.0595 70.1364 41.0671 67.6625 45.5851 63.1709C49.8234 58.957 52.2759 53.4395 52.5617 47.5285C52.5707 47.3388 52.5783 47.1492 52.5832 46.9591C52.5855 46.8564 52.5874 46.754 52.5885 46.6502C52.5897 46.5527 52.5904 46.4553 52.5904 46.3567L52.5897 46.3555V43.1238L52.5904 22.5762L34.8491 22.5773L33.3868 22.578H31.9235C31.8989 22.9739 31.8864 23.3739 31.8852 23.7773L31.886 26.9745Z" fill="white"/>
<path d="M5.18676 81.7869C4.80256 82.1402 4.27452 82.36 3.70788 82.36C2.49774 82.36 1.5185 81.3955 1.5185 80.1928C1.5185 78.9995 2.49774 78.0256 3.70788 78.0256C4.27452 78.0256 4.80256 78.245 5.18676 78.6078L6.21407 77.5767C5.56111 76.9562 4.67765 76.5742 3.70788 76.5742C1.70095 76.5742 0.0683594 78.1972 0.0683594 80.1924C0.0683594 82.1876 1.70095 83.8106 3.70788 83.8106C4.67765 83.8106 5.56111 83.4287 6.21407 82.8081L5.18676 81.7869Z" fill="#FF7200"/>
<path d="M19.4446 80.1924C19.4446 78.1972 17.8121 76.5742 15.8055 76.5742C13.7986 76.5742 12.166 78.1972 12.166 80.1924C12.166 82.1876 13.7986 83.8106 15.8055 83.8106C17.8121 83.8106 19.4446 82.1876 19.4446 80.1924ZM15.8055 82.369C14.5954 82.369 13.6158 81.3951 13.6158 80.1924C13.6158 78.9992 14.5954 78.0253 15.8055 78.0253C17.0058 78.0253 17.985 78.9988 17.985 80.1924C17.985 81.3955 17.0058 82.369 15.8055 82.369Z" fill="#FF7200"/>
<path d="M33.2612 83.8103V76.5742H31.696L29.574 81.8629L27.4421 76.5742H25.877V83.8103H27.3271V80.1921L28.7867 83.8103H30.3519L31.8114 80.1921V83.8103H33.2612Z" fill="#FF7200"/>
<path d="M41.731 76.5742H39.6953V83.8103H41.1454V80.9176H41.7408C42.9411 80.9176 43.9109 79.9441 43.9109 78.7508C43.9109 77.5477 42.9411 76.5742 41.731 76.5742ZM41.731 79.4665H41.145V78.0249H41.731C42.1341 78.0249 42.4608 78.3497 42.4608 78.7504C42.4608 79.1422 42.1345 79.4665 41.731 79.4665Z" fill="#FF7200"/>
<path d="M53.5602 76.5742H52.0139L49.3828 83.8103H50.9287L51.6683 81.7865H53.9058L54.6454 83.8103H56.1913L53.5602 76.5742ZM52.1968 80.3354L52.7827 78.703L53.3781 80.3354H52.1968Z" fill="#FF7200"/>
<path d="M67.0429 81.4045L64.1332 76.5742H62.4336V83.8103H63.8833V78.989L66.8025 83.8103H68.4926V76.5742H67.0429V81.4045Z" fill="#FF7200"/>
<path d="M78.0858 83.8103V80.364L79.9871 76.5742H78.3644L77.3655 78.5788L76.3575 76.5742H74.7344L76.6361 80.364V83.8103H78.0858Z" fill="#FF7200"/>
<path d="M0.0546875 87.3225H0.898416V89.9744H1.36815V87.3225H2.21225V86.9082H0.0546875V87.3225Z" fill="#FF7200"/>
<path d="M5.62118 86.9082L4.5 89.9744H4.9951L5.23205 89.2887H6.40169L6.64093 89.9744H7.13376L6.0122 86.9082H5.62118ZM5.36718 88.8767L5.81346 87.537H5.8218L6.26806 88.8767H5.36718Z" fill="#FF7200"/>
<path d="M10.5004 87.5703C10.5496 87.5071 10.6147 87.4544 10.6949 87.4126C10.7737 87.372 10.8683 87.3502 10.9784 87.3475C11.128 87.3502 11.2548 87.3931 11.3593 87.4759C11.4592 87.5628 11.5285 87.6678 11.5663 87.7912H12.0614C12.0122 87.5346 11.8937 87.3197 11.7064 87.1458C11.5186 86.9735 11.2764 86.8858 10.9788 86.8828C10.7362 86.8858 10.5341 86.943 10.3717 87.0552C10.2066 87.1658 10.0867 87.2919 10.0121 87.4337C9.9659 87.5079 9.93108 87.6057 9.90874 87.7261C9.88755 87.8465 9.87695 88.0851 9.87695 88.4411C9.87695 88.7914 9.88755 89.0285 9.90874 89.1519C9.91972 89.2178 9.9341 89.2728 9.95114 89.316C9.96931 89.3582 9.98974 89.4022 10.0125 89.4485C10.087 89.5904 10.207 89.7149 10.3721 89.8229C10.5344 89.9351 10.7366 89.9941 10.9792 89.9998C11.2938 89.9941 11.5546 89.8884 11.762 89.6822C11.9675 89.4748 12.0735 89.2174 12.0792 88.9104V88.2857H10.9834V88.7252H11.6113V88.8851C11.6087 89.0771 11.5481 89.2321 11.4296 89.3499C11.3112 89.4733 11.1609 89.535 10.9792 89.535C10.8691 89.535 10.7744 89.5121 10.6957 89.4658C10.6154 89.4267 10.5503 89.3751 10.5011 89.3123C10.4406 89.2464 10.4001 89.1602 10.3804 89.0534C10.3577 88.9469 10.3467 88.7429 10.3467 88.4415C10.3467 88.14 10.358 87.9346 10.3804 87.8255C10.3997 87.7209 10.4398 87.6358 10.5004 87.5703Z" fill="#FF7200"/>
<path d="M15.2227 86.9082V89.9744H17.1921V89.5348H15.6901V86.9082H15.2227Z" fill="#FF7200"/>
<path d="M20.6999 86.9082H20.2324V89.9744H20.6999V86.9082Z" fill="#FF7200"/>
<path d="M25.7918 89.0867H25.7835L24.3871 86.9082H23.9473V89.9744H24.4147V87.7956H24.4231L25.8172 89.9744H26.2593V86.9082H25.7918V89.0867Z" fill="#FF7200"/>
<path d="M31.4831 87.3477V86.9082H29.5137V89.9744H31.4831V89.5348H29.9811V88.6347H31.2628V88.2226H29.9811V87.3477H31.4831Z" fill="#FF7200"/>
<path d="M38.5475 87.0544C38.3824 87.165 38.2628 87.2911 38.1879 87.433C38.1413 87.5071 38.1069 87.605 38.0845 87.7254C38.0633 87.8458 38.0527 88.0844 38.0527 88.4404C38.0527 88.7907 38.0633 89.0278 38.0845 89.1512C38.0955 89.2171 38.1099 89.272 38.1269 89.3153C38.1451 89.3574 38.1655 89.4014 38.1883 89.4477C38.2632 89.5896 38.3828 89.7142 38.5478 89.8222C38.7102 89.9343 38.9124 89.9934 39.155 89.999C39.4695 89.9934 39.7304 89.8876 39.9378 89.6814C40.1437 89.4741 40.2493 89.2167 40.255 88.9096V88.2849H39.1595V88.7245H39.7875V88.8844C39.7849 89.0763 39.7243 89.2314 39.6058 89.3491C39.4873 89.4726 39.3371 89.5343 39.155 89.5343C39.0448 89.5343 38.9506 89.5113 38.8715 89.465C38.7912 89.4259 38.7261 89.3743 38.6769 89.3115C38.6163 89.2457 38.5759 89.1595 38.5562 89.0526C38.5335 88.9461 38.5225 88.7422 38.5225 88.4407C38.5225 88.1393 38.5338 87.9338 38.5562 87.8247C38.5759 87.7208 38.6163 87.6362 38.6769 87.5703C38.7261 87.5071 38.7912 87.4544 38.8715 87.4127C38.9502 87.372 39.0448 87.3502 39.155 87.3475C39.3045 87.3502 39.4313 87.3931 39.5358 87.4759C39.6357 87.5628 39.705 87.6678 39.7428 87.7912H40.238C40.1887 87.5346 40.0703 87.3197 39.8829 87.1459C39.6952 86.9735 39.4529 86.8858 39.1554 86.8828C38.912 86.8851 38.7095 86.9423 38.5475 87.0544Z" fill="#FF7200"/>
<path d="M43.4281 87.4337C43.3819 87.5079 43.3471 87.6057 43.3248 87.7261C43.3036 87.8466 43.293 88.0851 43.293 88.4411C43.293 88.7915 43.3036 89.0285 43.3248 89.152C43.3357 89.2178 43.3501 89.2728 43.3672 89.316C43.3853 89.3582 43.4058 89.4022 43.4285 89.4485C43.5034 89.5904 43.623 89.7149 43.7881 89.8229C43.9505 89.9351 44.1526 89.9941 44.3952 89.9998C44.6405 89.9941 44.8449 89.9355 45.0088 89.8229C45.1708 89.7149 45.2878 89.5904 45.3597 89.4485C45.4119 89.3744 45.4479 89.2754 45.468 89.152C45.4861 89.0285 45.4952 88.7915 45.4952 88.4411C45.4952 88.0851 45.4861 87.8466 45.468 87.7261C45.4479 87.6057 45.4123 87.5079 45.3597 87.4337C45.2878 87.2923 45.1708 87.1662 45.0088 87.0552C44.8453 86.943 44.6409 86.8854 44.3952 86.8828C44.1526 86.8858 43.9505 86.943 43.7881 87.0552C43.6227 87.1662 43.503 87.2923 43.4281 87.4337ZM43.796 87.8251C43.8157 87.7212 43.8562 87.6366 43.9168 87.5707C43.966 87.5075 44.0311 87.4548 44.1113 87.413C44.1901 87.3724 44.2847 87.3506 44.3949 87.3479C44.5061 87.3506 44.6027 87.3724 44.6848 87.413C44.7624 87.4552 44.8245 87.5075 44.871 87.5707C44.9316 87.6366 44.9732 87.7212 44.996 87.8251C45.0171 87.9346 45.0274 88.1397 45.0274 88.4411C45.0274 88.7426 45.0171 88.9465 44.996 89.053C44.9732 89.1595 44.9316 89.2457 44.871 89.3119C44.8245 89.3747 44.7624 89.4263 44.6848 89.4654C44.603 89.5117 44.5061 89.5347 44.3949 89.5347C44.2847 89.5347 44.1901 89.5117 44.1113 89.4654C44.0311 89.4263 43.966 89.3747 43.9168 89.3119C43.8562 89.246 43.8157 89.1599 43.796 89.053C43.7733 88.9465 43.7623 88.7426 43.7623 88.4411C43.7623 88.1397 43.7737 87.9342 43.796 87.8251Z" fill="#FF7200"/>
<path d="M48.6406 89.9744H50.6097V89.5348H49.1077V88.6347H50.3898V88.2226H49.1077V87.3477H50.6097V86.9082H48.6406V89.9744Z" fill="#FF7200"/>
<path d="M54.5634 89.5347C54.225 89.532 53.9327 89.4304 53.6875 89.2299L53.3809 89.5791C53.7094 89.8594 54.1023 89.9998 54.5592 89.9998C55.2659 89.9911 55.6266 89.6939 55.6422 89.1079C55.6422 88.8904 55.5736 88.7 55.437 88.5359C55.2988 88.3692 55.085 88.2661 54.7962 88.227C54.6493 88.2086 54.5338 88.1927 54.4491 88.1784C54.2969 88.1506 54.186 88.1002 54.1171 88.0272C54.0482 87.9557 54.0134 87.8759 54.0134 87.7875C54.016 87.64 54.0679 87.5293 54.1678 87.4552C54.2636 87.3837 54.3836 87.3479 54.5274 87.3479C54.8052 87.3536 55.06 87.4319 55.2913 87.5831L55.5517 87.2004C55.2682 86.9972 54.9347 86.8915 54.5512 86.8828C54.2325 86.8858 53.9865 86.9686 53.8131 87.1312C53.6341 87.2953 53.5444 87.5109 53.5444 87.7788C53.5444 88.0016 53.6155 88.1909 53.7579 88.3467C53.896 88.4979 54.0978 88.5954 54.3631 88.6391C54.5111 88.6601 54.647 88.6789 54.7716 88.6959C55.0422 88.7422 55.1762 88.8795 55.1736 89.1079C55.1671 89.3868 54.9639 89.529 54.5634 89.5347Z" fill="#FF7200"/>
<path d="M62.373 89.9744H62.8405V88.6347H64.0613V89.9744H64.5287V86.9082H64.0613V88.2226H62.8405V86.9082H62.373V89.9744Z" fill="#FF7200"/>
<path d="M69.7488 87.3477V86.9082H67.7793V89.9744H69.7488V89.5348H68.2468V88.6347H69.5285V88.2226H68.2468V87.3477H69.7488Z" fill="#FF7200"/>
<path d="M74.9297 87.7639C74.9214 87.4806 74.8192 87.2627 74.6231 87.1099C74.4607 86.9756 74.2517 86.9082 73.9947 86.9082H72.791V89.9744H73.2585V88.6641H73.8551L74.4917 89.9744H75.0482L74.3331 88.6137C74.7253 88.4635 74.924 88.1801 74.9297 87.7639ZM73.2585 88.2516V87.3222H73.9906C74.1401 87.3222 74.254 87.3538 74.3331 87.417C74.4331 87.4885 74.4845 87.604 74.4876 87.7639C74.4876 87.8972 74.4444 88.0093 74.3585 88.1004C74.271 88.1986 74.1397 88.249 73.9652 88.2516H73.2585Z" fill="#FF7200"/>
<path d="M78.0312 89.9744H80.0003V89.5348H78.4987V88.6347H79.7804V88.2226H78.4987V87.3477H80.0003V86.9082H78.0312V89.9744Z" fill="#FF7200"/>
</svg>
