<svg width="36" height="21" viewBox="0 0 36 21" fill="none" xmlns="http://www.w3.org/2000/svg">
<path d="M35.3383 6.78909C35.7495 5.14536 35.3696 3.44508 34.277 2.12934C33.1884 0.798519 31.5711 0.0482832 29.8206 0.0482832H12.7662C12.03 0.0482832 11.4112 0.587397 11.3682 1.28108C11.3368 2.03132 11.9556 2.64206 12.7231 2.64206H29.8049C30.7174 2.64206 31.5711 3.03792 32.1428 3.7316C32.7185 4.42529 32.9064 5.31878 32.7028 6.16704L30.8505 13.5337V13.5902C30.7918 13.79 30.5411 13.8579 30.3806 13.7033L28.6888 12.0747C28.1602 11.5657 27.3065 11.5657 26.7778 12.0747C26.2491 12.5836 26.2491 13.4055 26.7778 13.9144L28.1758 15.2603C28.3521 15.43 28.2346 15.7128 27.984 15.7128H16.0087C14.6537 15.7128 13.4789 14.8343 13.1382 13.5865L10.5341 4.09729C9.87224 1.70333 7.62052 0.0332031 5.04767 0.0332031H1.89917C1.16295 0.0332031 0.544216 0.572317 0.501139 1.28108C0.469811 2.03132 1.08855 2.64206 1.8561 2.64206H5.03592C6.39088 2.64206 7.56569 3.52048 7.90639 4.76836L10.5106 14.2575C11.1724 16.6515 13.4241 18.3216 15.9969 18.3216H27.9722C28.8102 18.3216 29.6209 18.152 30.3414 17.824C30.549 17.7373 30.7957 17.7825 30.9445 17.9371L32.7263 19.6524C32.9926 19.9088 33.3294 20.0332 33.6818 20.0332C34.0343 20.0332 34.375 19.905 34.6373 19.6524C35.166 19.1435 35.166 18.3216 34.6373 17.8127L32.9887 16.2255C32.8125 16.0558 32.7811 15.7995 32.8986 15.5883C33.1649 15.151 33.3685 14.6685 33.486 14.1595L35.3383 6.79286V6.78909Z" fill="#229799"/>
</svg>
