<svg width="183" height="182" viewBox="0 0 183 182" fill="none" xmlns="http://www.w3.org/2000/svg">
<path d="M164.539 156.773H74.2773C72.8937 156.772 71.5407 156.364 70.3875 155.6C69.2343 154.835 68.3318 153.748 67.7928 152.473L35.0654 75.0186H7.04028C5.17308 75.0186 3.38236 74.2768 2.06205 72.9565C0.741742 71.6362 0 69.8455 0 67.9783C0 66.1111 0.741742 64.3204 2.06205 63C3.38236 61.6797 5.17308 60.938 7.04028 60.938H39.7334C41.117 60.9386 42.4697 61.3465 43.6229 62.111C44.7761 62.8755 45.6787 63.9626 46.218 65.2367L78.9454 142.691H164.539C166.406 142.691 168.197 143.433 169.517 144.754C170.838 146.074 171.579 147.865 171.579 149.732C171.579 151.599 170.838 153.39 169.517 154.71C168.197 156.03 166.406 156.772 164.539 156.772V156.773Z" fill="#ECECEC"/>
<path d="M162.115 136.041H86.2503C85.7823 136.041 85.325 135.902 84.9369 135.64C84.5488 135.379 84.2478 135.007 84.0725 134.574L63.7947 84.5063C63.6503 84.1499 63.5958 83.7636 63.6358 83.3812C63.6758 82.9988 63.8092 82.6321 64.0242 82.3134C64.2392 81.9947 64.5293 81.7337 64.8688 81.5534C65.2084 81.373 65.587 81.2789 65.9715 81.2793H180.646C181.024 81.2794 181.397 81.371 181.733 81.5463C182.068 81.7216 182.356 81.9754 182.572 82.2861C182.789 82.5968 182.926 82.9551 182.974 83.3306C183.022 83.706 182.978 84.0875 182.846 84.4423L164.314 134.51C164.148 134.959 163.848 135.347 163.455 135.621C163.062 135.895 162.594 136.041 162.115 136.041ZM87.8318 131.347H160.483L177.277 85.9734H69.4552L87.8318 131.347Z" fill="#E3E3E3"/>
<path d="M105.456 134.844C104.941 134.844 104.44 134.674 104.031 134.361C103.622 134.048 103.327 133.609 103.192 133.112L89.9363 84.2406C89.8557 83.9432 89.8344 83.6329 89.8736 83.3273C89.9129 83.0218 90.0119 82.7269 90.1652 82.4596C90.3184 82.1923 90.5227 81.9578 90.7666 81.7695C91.0104 81.5812 91.289 81.4428 91.5863 81.3621C91.8836 81.2814 92.1939 81.2601 92.4995 81.2994C92.8051 81.3387 93.0999 81.4377 93.3672 81.5909C93.6345 81.7442 93.869 81.9485 94.0573 82.1924C94.2456 82.4362 94.3841 82.7147 94.4647 83.0121L107.72 131.883C107.802 132.181 107.824 132.492 107.786 132.798C107.747 133.104 107.648 133.4 107.495 133.667C107.341 133.935 107.136 134.17 106.892 134.359C106.648 134.547 106.368 134.685 106.07 134.765C105.87 134.818 105.663 134.844 105.456 134.844Z" fill="#E3E3E3"/>
<path d="M142.344 134.844C142.157 134.843 141.971 134.822 141.789 134.78C141.184 134.632 140.663 134.25 140.339 133.719C140.015 133.187 139.916 132.548 140.062 131.943L151.86 83.3521C152.007 82.7467 152.389 82.2245 152.921 81.9003C153.453 81.5762 154.092 81.4767 154.697 81.6237C155.303 81.7707 155.825 82.1523 156.149 82.6843C156.473 83.2163 156.572 83.8553 156.425 84.4607L144.627 133.052C144.502 133.563 144.209 134.017 143.795 134.342C143.381 134.667 142.87 134.844 142.344 134.844Z" fill="#E3E3E3"/>
<path d="M123.203 135.674C122.894 135.674 122.589 135.614 122.304 135.496C122.019 135.378 121.761 135.205 121.543 134.987C121.325 134.769 121.152 134.51 121.034 134.226C120.916 133.941 120.855 133.635 120.855 133.327V84.456C120.855 83.8335 121.103 83.2365 121.543 82.7963C121.983 82.3562 122.58 82.1089 123.203 82.1089C123.825 82.1089 124.422 82.3562 124.862 82.7963C125.302 83.2365 125.55 83.8335 125.55 84.456V133.327C125.55 133.635 125.489 133.941 125.371 134.226C125.253 134.51 125.08 134.769 124.862 134.987C124.644 135.205 124.386 135.378 124.101 135.496C123.816 135.614 123.511 135.674 123.203 135.674Z" fill="#E3E3E3"/>
<path d="M170.328 111.468H76.9857C76.6775 111.468 76.3723 111.407 76.0876 111.289C75.8028 111.171 75.5441 110.999 75.3261 110.781C75.1082 110.563 74.9353 110.304 74.8173 110.019C74.6994 109.734 74.6387 109.429 74.6387 109.121C74.6387 108.813 74.6994 108.508 74.8173 108.223C74.9353 107.938 75.1082 107.679 75.3261 107.461C75.5441 107.243 75.8028 107.071 76.0876 106.953C76.3723 106.835 76.6775 106.774 76.9857 106.774H170.328C170.95 106.774 171.547 107.021 171.987 107.461C172.428 107.902 172.675 108.498 172.675 109.121C172.675 109.743 172.428 110.34 171.987 110.781C171.547 111.221 170.95 111.468 170.328 111.468Z" fill="#E3E3E3"/>
<path d="M84.8769 182C89.8993 182 93.9707 177.928 93.9707 172.906C93.9707 167.884 89.8993 163.812 84.8769 163.812C79.8546 163.812 75.7832 167.884 75.7832 172.906C75.7832 177.928 79.8546 182 84.8769 182Z" fill="#E3E3E3"/>
<path d="M154.11 182C159.133 182 163.204 177.928 163.204 172.906C163.204 167.884 159.133 163.812 154.11 163.812C149.088 163.812 145.017 167.884 145.017 172.906C145.017 177.928 149.088 182 154.11 182Z" fill="#E3E3E3"/>
<path d="M117.099 51.4V48.1C117.099 46.1667 117.565 44.5 118.499 43.1C119.432 41.7 120.565 40.4333 121.899 39.3C123.299 38.1667 124.665 37.0667 125.999 36C127.332 34.8667 128.465 33.6333 129.399 32.3C130.332 30.9667 130.799 29.4 130.799 27.6C130.799 25.2667 130.032 23.4667 128.499 22.2C126.965 20.9333 124.832 20.3 122.099 20.3C119.632 20.3 117.399 20.6 115.399 21.2C113.465 21.7333 111.365 22.6333 109.099 23.9C108.632 24.2333 108.199 24.4 107.799 24.4C107.332 24.4 106.999 24.1333 106.799 23.6L106.099 21.3C105.565 19.5667 105.565 18.1333 106.099 17C106.699 15.8 108.032 14.7667 110.099 13.9C111.832 13.1667 113.665 12.5667 115.599 12.1C117.532 11.6333 119.765 11.4 122.299 11.4C127.699 11.4 132.132 12.6333 135.599 15.1C139.065 17.5667 140.799 21.2667 140.799 26.2C140.799 29 140.199 31.5 138.999 33.7C137.799 35.9 136.165 37.9333 134.099 39.8C132.099 41.6667 129.765 43.6 127.099 45.6C126.299 46.2 125.765 46.7667 125.499 47.3C125.299 47.8333 125.199 48.5 125.199 49.3V51.4C125.199 52.1333 124.865 52.5 124.199 52.5H118.199C117.465 52.5 117.099 52.1333 117.099 51.4ZM121.299 69C119.632 69 118.199 68.4333 116.999 67.3C115.865 66.1 115.299 64.6333 115.299 62.9C115.299 61.1667 115.865 59.7333 116.999 58.6C118.199 57.4667 119.632 56.9 121.299 56.9C122.965 56.9 124.365 57.4667 125.499 58.6C126.632 59.7333 127.199 61.1667 127.199 62.9C127.199 64.6333 126.632 66.1 125.499 67.3C124.365 68.4333 122.965 69 121.299 69Z" fill="#E1E1E1"/>
</svg>
